<mxfile host="Electron" agent="Mozilla/5.0 (Windows NT 10.0; Win64; x64) AppleWebKit/537.36 (KHTML, like Gecko) draw.io/26.0.15 Chrome/132.0.6834.196 Electron/34.2.0 Safari/537.36" version="26.0.15">
  <diagram id="XHZaOG9HmkUnWL_vPc_8" name="ページ1">
    <mxGraphModel dx="1195" dy="725" grid="1" gridSize="10" guides="1" tooltips="1" connect="1" arrows="1" fold="1" page="1" pageScale="1" pageWidth="620" pageHeight="480" background="#ffffff" math="1" shadow="0">
      <root>
        <mxCell id="0" />
        <mxCell id="1" parent="0" />
        <mxCell id="NLzhiPkLsJ924PcCclZS-1" value="" style="endArrow=classic;html=1;rounded=0;" edge="1" parent="1">
          <mxGeometry width="50" height="50" relative="1" as="geometry">
            <mxPoint x="80" y="460" as="sourcePoint" />
            <mxPoint x="80" y="50" as="targetPoint" />
          </mxGeometry>
        </mxCell>
        <mxCell id="NLzhiPkLsJ924PcCclZS-2" value="" style="endArrow=classic;html=1;rounded=0;" edge="1" parent="1">
          <mxGeometry width="50" height="50" relative="1" as="geometry">
            <mxPoint x="40" y="360" as="sourcePoint" />
            <mxPoint x="510" y="360" as="targetPoint" />
          </mxGeometry>
        </mxCell>
        <mxCell id="NLzhiPkLsJ924PcCclZS-3" value="" style="endArrow=none;html=1;rounded=0;curved=1;" edge="1" parent="1">
          <mxGeometry width="50" height="50" relative="1" as="geometry">
            <mxPoint x="80" y="320" as="sourcePoint" />
            <mxPoint x="400" y="80" as="targetPoint" />
            <Array as="points">
              <mxPoint x="350" y="270" />
            </Array>
          </mxGeometry>
        </mxCell>
        <mxCell id="NLzhiPkLsJ924PcCclZS-4" value="" style="endArrow=none;html=1;rounded=0;" edge="1" parent="1">
          <mxGeometry width="50" height="50" relative="1" as="geometry">
            <mxPoint x="78" y="390" as="sourcePoint" />
            <mxPoint x="428" y="140" as="targetPoint" />
          </mxGeometry>
        </mxCell>
        <mxCell id="NLzhiPkLsJ924PcCclZS-6" value="" style="endArrow=none;dashed=1;html=1;rounded=0;" edge="1" parent="1">
          <mxGeometry width="50" height="50" relative="1" as="geometry">
            <mxPoint x="288" y="370" as="sourcePoint" />
            <mxPoint x="288" y="70" as="targetPoint" />
          </mxGeometry>
        </mxCell>
        <mxCell id="NLzhiPkLsJ924PcCclZS-7" value="" style="endArrow=none;dashed=1;html=1;rounded=0;" edge="1" parent="1">
          <mxGeometry width="50" height="50" relative="1" as="geometry">
            <mxPoint x="70" y="240" as="sourcePoint" />
            <mxPoint x="540" y="240" as="targetPoint" />
          </mxGeometry>
        </mxCell>
        <mxCell id="NLzhiPkLsJ924PcCclZS-8" value="" style="ellipse;whiteSpace=wrap;html=1;aspect=fixed;fillColor=#FF0000;" vertex="1" parent="1">
          <mxGeometry x="283" y="235" width="10" height="10" as="geometry" />
        </mxCell>
        <mxCell id="NLzhiPkLsJ924PcCclZS-10" value="`x`" style="text;html=1;align=center;verticalAlign=middle;whiteSpace=wrap;rounded=0;fontSize=24;" vertex="1" parent="1">
          <mxGeometry x="500" y="342" width="60" height="30" as="geometry" />
        </mxCell>
        <mxCell id="NLzhiPkLsJ924PcCclZS-12" value="`y`" style="text;html=1;align=center;verticalAlign=middle;whiteSpace=wrap;rounded=0;fontSize=24;" vertex="1" parent="1">
          <mxGeometry x="60" y="20" width="60" height="30" as="geometry" />
        </mxCell>
        <mxCell id="NLzhiPkLsJ924PcCclZS-13" value="`x`" style="text;html=1;align=center;verticalAlign=middle;whiteSpace=wrap;rounded=0;fontSize=24;" vertex="1" parent="1">
          <mxGeometry x="258" y="370" width="60" height="30" as="geometry" />
        </mxCell>
        <mxCell id="NLzhiPkLsJ924PcCclZS-14" value="`y`" style="text;html=1;align=center;verticalAlign=middle;whiteSpace=wrap;rounded=0;fontSize=24;" vertex="1" parent="1">
          <mxGeometry x="20" y="225" width="60" height="30" as="geometry" />
        </mxCell>
        <mxCell id="NLzhiPkLsJ924PcCclZS-15" value="`y=Xx+Y`" style="text;html=1;align=center;verticalAlign=middle;whiteSpace=wrap;rounded=0;fontSize=24;" vertex="1" parent="1">
          <mxGeometry x="440" y="120" width="150" height="40" as="geometry" />
        </mxCell>
        <mxCell id="NLzhiPkLsJ924PcCclZS-17" value="`y=y(x)`" style="text;html=1;align=center;verticalAlign=middle;whiteSpace=wrap;rounded=0;fontSize=24;" vertex="1" parent="1">
          <mxGeometry x="340" y="50" width="150" height="40" as="geometry" />
        </mxCell>
        <mxCell id="NLzhiPkLsJ924PcCclZS-18" value="" style="ellipse;whiteSpace=wrap;html=1;aspect=fixed;fillColor=#0000FF;" vertex="1" parent="1">
          <mxGeometry x="75" y="384" width="10" height="10" as="geometry" />
        </mxCell>
        <mxCell id="NLzhiPkLsJ924PcCclZS-19" value="`Y`" style="text;html=1;align=center;verticalAlign=middle;whiteSpace=wrap;rounded=0;fontSize=24;" vertex="1" parent="1">
          <mxGeometry x="28" y="376" width="60" height="30" as="geometry" />
        </mxCell>
      </root>
    </mxGraphModel>
  </diagram>
</mxfile>
